# xmcd CD database file generated by OrangeCD 5.2
#
# Track frame offsets:
#	150
#	13993
#	29011
#	40023
#	50990
#	67971
#	77112
#	93362
#	113449
#	124302
#	144644
#	162777
#	176755
#	190498
#	197540
#	209443
#	225859
#	241590
#	262031
#	282227
#	304023
#	318179
#	343505
#
# Disc length: 4699 seconds
#
# Revision: 0
# Processed by: cddbd v1.5.1PL2 Copyright (c) Steve Scherf et al.
# Submitted via: OrangeCD 5.2
#
DISCID=44125917
DTITLE=Johnny Cash - The Last Performances
DYEAR=1900
DGENRE=Country
TTITLE0=Johnny Cash and June Carter Cash - Jackson
TTITLE1=Johnny Cash and June Carter Cash - If I Were A Carpenter
TTITLE2=Johnny Cash and June Carter Cash - Far Side Banks Of Jordan
TTITLE3=June Carter Cash - June Speaks
TTITLE4=Johnny Cash and June Carter Cash - Daddy Sang Bass
TTITLE5=Introduction
TTITLE6=Folsom Prison Blues
TTITLE7=Sunday Morning Coming Down
TTITLE8=Johnny Speaks About June Passing Away
TTITLE9=Johnny Cash and Rosie Carter - Oh Come, Angel Band
TTITLE10=Johnny Cash and Laura Cash - Far Side Banks Of Jordan
TTITLE11=Ring Of Fire
TTITLE12=I Walk The Line
TTITLE13=Johnny Says Goodbye
TTITLE14=Jeanette Carter - Jeanette Speaks
TTITLE15=Folsom Prison Blues
TTITLE16=I Walk The Line
TTITLE17=Sunday Morning Coming Down
TTITLE18=Ring Of Fire
TTITLE19=Oh Come, Angel Band
TTITLE20=Big River
TTITLE21=Understand Your Man
TTITLE22=Jeanette Carter - Jeanette Speaks
EXTD=Track 1-5 Recorded Live At The Carter Fold, September 28 2002\n\nTrack 6-1
EXTD=4 Recorded Live At The Carter Fold, June 21 2003\n\nTrack 15-25 Recorded L
EXTD=ive At The Carter Fold, July 5, 2003
EXTT0=
EXTT1=
EXTT2=
EXTT3=
EXTT4=
EXTT5=
EXTT6=
EXTT7=
EXTT8=
EXTT9=
EXTT10=
EXTT11=
EXTT12=
EXTT13=
EXTT14=
EXTT15=
EXTT16=
EXTT17=
EXTT18=
EXTT19=
EXTT20=
EXTT21=
EXTT22=
PLAYORDER=
